<svg version="1.1" xmlns="http://www.w3.org/2000/svg" width="300" height="200" viewBox="0 0 300 200" xml:space="preserve">
<style type="text/css">
	.st0{fill:#FFFFFF;}
</style>
<filter id="f2">
	<feOffset result="offOut" in="SourceGraphic" dx="0" dy="0"></feOffset>
	<feGaussianBlur stdDeviation="6" result="blurOut" in="offOut"></feGaussianBlur>
	<feBlend in2="blurOut" mode="normal" in="SourceGraphic"></feBlend>
</filter>
<path filter="url(#f2)" class="st0" d="M97.3,29.9c-12.5,0-24.3,3.2-34.5,8.8L87,12.5L52.5,44.6l4.2-13.9l-6.3,12L48.2,20L46,42.7l-6.3-11.9l4.2,13.9
	L9.3,12.5l32.1,34.6l-13.9-4.2l11.9,6.3l-22.7,2.2l22.7,2.2l-11.9,6.3l13.9-4.2L9.3,90.3l24.9-23.2c-5.7,10.3-8.9,22.1-8.9,34.7
	c0,29.9,18.3,55.6,44.3,66.5c-24.4-11.2-41.3-35.9-41.3-64.5c0-16.4,5.6-31.6,15-43.6L39.6,72l6.3-11.9l2.2,22.7l2.3-22.7L56.7,72
	l-4.3-14l25.3,22.8L54.8,55.7l14,4.3l-11.9-6.3l22.7-2.2l-22.7-2.2L68.8,43l-11,3.4C69.5,38,83.8,33,99.3,33
	c28.6,0,53.3,16.9,64.5,41.3C152.9,48.1,127.2,29.9,97.3,29.9z"/>
<g>
	<path class="st0" d="M103.6,130.4c-1.8-6.9-3.7-14.1-2.6-28.5c0.4-2.2,0.6-4.4,0.6-6.6l-5-0.3c-0.3,2.2-0.4,4.3-0.6,6.3
		c-2.6,15.1-13.6,31.2-21.9,43.3c-1.6,2.4-3.2,4.7-4.6,6.9l4.2,2.7c1.4-2.1,2.9-4.4,4.6-6.8c5.8-8.6,13-19,17.8-29.9
		c0.6,5.8,1.7,10.1,2.7,14.2l0.3,1.1l4.8-1.3L103.6,130.4z"/>

		<rect x="87.7" y="80" transform="matrix(5.591016e-02 -0.9984 0.9984 5.591016e-02 2.8567 167.9256)" class="st0" width="5.1" height="5"/>
	<path class="st0" d="M195,121.7l1.9,4.6c1.8-0.7,12.8-5.2,24.4-12.1c1,2.9,2.7,5.4,5,7.3c4,3.2,15.6,8.6,38.5-10.3l-3.2-3.9
		c-13.9,11.4-26,15.3-32.2,10.2c-1.8-1.5-3-3.6-3.7-6.1c5.5-3.5,10.9-7.5,15.3-11.9c7.7-7.6,11-15.4,8.9-20.9
		c-1.1-2.8-3.6-4.7-6.7-4.8c-5-0.3-12.6,3.8-18.8,16.1c-3.4,6.6-4.8,13.3-4.2,19C208.4,116.2,196.8,120.9,195,121.7z M228.8,92.3
		c4.8-9.3,10.3-13.4,13.9-13.4c0.1,0,0.2,0,0.2,0c1.1,0.1,1.9,0.6,2.3,1.6c1.1,2.9-0.9,8.8-7.8,15.5c-3.6,3.6-7.9,6.9-12.4,9.9
		C225.2,101.7,226.4,97,228.8,92.3z"/>
	<path class="st0" d="M188,140.1c-35.5,15-59.3,12.7-64.9,1.7c-4.4-8.5,2.4-23.8,27.1-37.7c4,11.3,7.6,20.9,8.5,23.1l4.6-2
		c-0.9-2.1-4.5-12-8.6-23.5c3.3-1.5,4.8-1.3,5.1-1.1c0,0,1,1.1-0.8,6.5l4.7,1.6c0.7-2.2,2.9-8.9-0.7-11.9c-2.2-1.8-5.5-1.7-9.9,0.2
		c-6.3-17.7-13.2-37.2-13.3-37.5h-4.7c-0.1,0.3-8.3,23.6-12.9,36.2c-1.7-6.8-2.8-12.1-3.3-15.2l-5,0.3c-0.2,7-3.3,27.9-4.8,35.1
		l4.9,1c0.9-4.1,2.2-12.4,3.3-20.2c0.7,2.9,1.5,5.7,2,7.8l4.7,0.3c1.6-4,9.4-25.8,13.3-37.1c2.6,7.4,7,19.9,11.2,31.5
		c-28.4,15.7-35.5,33.7-29.9,44.7c3.9,7.5,13.2,11.6,26.3,11.6c0.5,0,1,0,1.4,0c14.9-0.3,33.5-5.8,54.1-15.8
		c-2.6,0.3-5.1,0.4-7.4,0.4C191.3,140.3,189.6,140.2,188,140.1z"/>
	<path class="st0" d="M166.1,126.4c2.9,7.1,11.3,13,26.9,13c7,0,15.6-1.2,25.7-4.1c11.2-3.2,28.5-8.9,79.7-29l-1.8-4.7
		c-14.7,5.8-26.5,10.3-36.3,14c-12.8,9.4-21.6,10.9-27.3,9.9c-6.9,2.3-11.6,3.8-15.6,4.9c-27.3,7.8-43,2.7-46.5-5.9
		c-3.6-8.8,4.3-24.5,30-38.2c3.1-1.7,6.2-2.3,6.9-1.7c0.3,0.2,0.7,1.8-0.7,6.1l4.7,1.6c0.7-2.1,2.8-8.4-0.9-11.5s-9.9-0.3-12.5,1.1
		C169.8,97.2,161.6,115.2,166.1,126.4z"/>
	<path class="st0" d="M74.4,173c-0.9-0.3-1.6-0.7-1.7-1.5c-0.1-0.8,0.4-1.6,1.5-1.7c0.5,0,1.4,0,3.1,0.6l0.4-2.9
		c-1.9-0.7-3-0.7-3.7-0.6c-2.5,0.1-4.2,2.1-4.2,4.6s2.1,3.7,4.5,4.6c0.8,0.3,1.5,0.7,1.6,1.5c0.1,0.8-0.7,1.4-1.6,1.5
		c-0.7,0.1-2.6,0-4.3-1.2l-0.4,3.1c2,1,3.9,1.2,4.7,1.1c2.8-0.1,4.5-2.1,4.5-4.6C78.8,175.2,76.7,173.9,74.4,173z"/>
	<path class="st0" d="M108.7,173c-0.9-0.3-1.6-0.7-1.7-1.5c-0.1-0.8,0.4-1.6,1.5-1.7c0.5,0,1.4,0,3.1,0.6l0.4-2.9
		c-1.9-0.7-3-0.7-3.7-0.6c-2.5,0.1-4.2,2.1-4.2,4.6s2.1,3.7,4.5,4.6c0.8,0.3,1.5,0.7,1.6,1.5c0.1,0.8-0.7,1.4-1.6,1.5
		c-0.7,0.1-2.6,0-4.3-1.2l-0.4,3.1c2,1,3.9,1.2,4.7,1.1c2.8-0.1,4.5-2.1,4.5-4.6C113,175.2,111,173.9,108.7,173z"/>
	<path class="st0" d="M145.9,166.8c-10.3,0-10.3,15.5,0,15.5C156.2,182.2,156.2,166.8,145.9,166.8z M145.9,179.1c-6,0-6-9.3,0-9.3
		C151.9,169.9,151.9,179.1,145.9,179.1z"/>
	<path class="st0" d="M184.1,167h-4.5v15h4.5C194.1,182,194.1,167,184.1,167z M184.1,179h-1.5v-9h1.5C189.9,170,189.9,179,184.1,179
		z"/>
	<polygon class="st0" points="225.9,175.5 218.3,166.7 217.5,166.7 217.5,182 220.5,182 220.5,173.9 228.1,182.3 228.9,182.3
		228.9,167 225.9,167 	"/>
	<polygon class="st0" points="258.5,176 262.4,176 262.4,173 258.5,173 258.5,170 263,170 263,167 255.5,167 255.5,182 263.2,182
		263.2,179 258.5,179 	"/>
	<polygon class="st0" points="287.9,170 291.7,170 291.7,182 294.7,182 294.7,170 298.4,170 298.4,167 287.9,167 	"/>
</g>
</svg>
